<?xml version="1.0" standalone="no"?>
<!DOCTYPE svg PUBLIC "-//W3C//DTD SVG 20010904//EN"
 "http://www.w3.org/TR/2001/REC-SVG-20010904/DTD/svg10.dtd">
<svg version="1.0" xmlns="http://www.w3.org/2000/svg"
 width="586.000000pt" height="586.000000pt" viewBox="0 0 586.000000 586.000000"
 preserveAspectRatio="xMidYMid meet">
<metadata>
Created by potrace 1.11, written by Peter Selinger 2001-2013
</metadata>
<g transform="translate(0.000000,586.000000) scale(0.100000,-0.100000)"
fill="#000000" stroke="none">
<path d="M1472 4204 l-1162 -1163 592 0 c326 0 612 0 635 -1 l43 0 -1 -1347
c0 -849 3 -1348 9 -1352 14 -8 1040 -6 1049 2 7 8 11 5005 3 5017 -3 4 -528
-516 -1168 -1156z"/>
<path d="M3279 5326 c-5 -5 -2 -4976 3 -4976 4 0 528 521 1165 1158 l1157
1157 -632 3 -632 2 0 1329 0 1329 -530 0 c-291 -1 -531 -1 -531 -2z"/>
</g>
</svg>
