<?xml version="1.0" standalone="no"?>
<!DOCTYPE svg PUBLIC "-//W3C//DTD SVG 20010904//EN"
 "http://www.w3.org/TR/2001/REC-SVG-20010904/DTD/svg10.dtd">
<svg version="1.0" xmlns="http://www.w3.org/2000/svg"
 width="992.000000pt" height="992.000000pt" viewBox="0 0 992.000000 992.000000"
 preserveAspectRatio="xMidYMid meet">
<metadata>
Created by potrace 1.11, written by Peter Selinger 2001-2013
</metadata>
<g transform="translate(0.000000,992.000000) scale(0.100000,-0.100000)"
fill="#000000" stroke="none">
<path d="M5694 9622 l-141 -3 0 -4639 c0 -2552 1 -4640 3 -4640 2 0 985 981
2185 2180 l2180 2179 -1181 1 c-650 0 -1184 2 -1188 4 -4 2 -7 1108 -7 2456 0
1684 -3 2454 -10 2457 -13 4 -1636 9 -1841 5z"/>
<path d="M4076 9340 c-153 -154 -283 -280 -289 -280 -6 0 -8 -2 -5 -5 2 -3
-847 -857 -1889 -1898 l-1893 -1893 1185 1 c782 0 1186 -3 1188 -10 2 -5 3
-1127 2 -2492 l0 -2483 996 0 996 0 0 4670 c0 2569 -2 4670 -6 4670 -3 0 -131
-126 -285 -280z"/>
</g>
</svg>
