<?xml version="1.0" standalone="no"?>
<!DOCTYPE svg PUBLIC "-//W3C//DTD SVG 20010904//EN"
 "http://www.w3.org/TR/2001/REC-SVG-20010904/DTD/svg10.dtd">
<svg version="1.0" xmlns="http://www.w3.org/2000/svg"
 width="16.000000pt" height="16.000000pt" viewBox="0 0 16.000000 16.000000"
 preserveAspectRatio="xMidYMid meet">
<metadata>
Created by potrace 1.11, written by Peter Selinger 2001-2013
</metadata>
<g transform="translate(0.000000,16.000000) scale(0.002286,-0.002286)"
fill="#000000" stroke="none">
<path d="M3859 6955 c-3 -57 -4 -6922 -1 -6931 3 -10 3122 3102 3122 3115 0 3
-311 6 -690 5 -619 0 -690 1 -691 15 0 9 -1 871 -1 1916 l-1 1900 -868 0
c-862 0 -869 0 -870 -20z"/>
<path d="M1590 5405 l-1564 -1565 697 0 697 0 0 -1915 0 -1915 870 0 870 0 0
3480 c0 1914 -1 3480 -2 3480 -2 0 -707 -704 -1568 -1565z"/>
</g>
</svg>
